hexagon.cc
   http://concerts.hexagon.cc/


General
Complete name                    : C:UsersinsinuendoDownloadsPORTISHEAD_NYC.vob
Format                           : MPEG-PS
File size                        : 3.85 GiB
Duration                         : 1h 23mn
Overall bit rate                 : 6 582 Kbps
 
http://www.imdb.com/title/tt0133157/

Video
ID                               : 224 (0xE0)
Format                           : MPEG Video
Format version                   : Version 2
Format profile                   : Main@Main
Format settings, Matrix          : Default
Duration                         : 1h 23mn
Bit rate mode                    : Variable
Bit rate                         : 5 873 Kbps
Nominal bit rate                 : 8 000 Kbps
Width                            : 720 pixels
Height                           : 480 pixels
Display aspect ratio             : 4:3
Frame rate                       : 29.970 fps
Standard                         : NTSC
Colorimetry                      : 4:2:0
Scan type                        : Interlaced
Scan order                       : Top Field First
Bits/(Pixel*Frame)               : 0.567
Stream size                      : 3.44 GiB (89%)

Audio
ID                               : 129 (0x81)
Format                           : AC-3
Format/Info                      : Audio Coding 3
Duration                         : 1h 23mn
Bit rate mode                    : Constant
Bit rate                         : 448 Kbps
Channel(s)                       : 6 channels
Channel positions                : Front: L C R, Surround: L R, LFE
Sampling rate                    : 48.0 KHz
Stream size                      : 268 MiB (7%)